<svg
    width="56"
    height="56"
    viewBox="0 0 56 56"
    fill="none"
    xmlns="http://www.w3.org/2000/svg">
    <path
      d="M12.277 21.1078H43.077C43.9386 21.1078 44.6924 21.8616 44.6924 22.7232V42.2155H10.6616V22.7232C10.7693 21.8616 11.4155 21.1078 12.277 21.1078Z"
      fill="#C2D8FC"
      stroke="#002868"
      stroke-width="1.5"
      stroke-miterlimit="10"/>
    <path
      d="M43.508 10.6616V15.6155C43.508 16.2616 42.9696 16.8001 42.3234 16.8001H37.6927L37.585 10.6616C37.585 9.04624 38.8773 7.64624 40.6003 7.64624C42.2157 7.75393 43.508 9.04624 43.508 10.6616Z"
      fill="#C2D8FC"
      stroke="#002868"
      stroke-width="1.5"
      stroke-miterlimit="10"/>
    <path
      d="M43.508 10.6616V15.6155C43.508 16.2616 42.9696 16.8001 42.3234 16.8001H37.6927L37.585 10.6616C37.585 9.04624 38.8773 7.64624 40.6003 7.64624C42.2157 7.75393 43.508 9.04624 43.508 10.6616Z"
      stroke="#002868"
      stroke-miterlimit="10"
      stroke-linecap="round"
      stroke-linejoin="round"/>
    <path
      d="M37.5848 34.1385V30.477V19.9232V10.6616C37.5848 9.04624 38.8771 7.64624 40.6001 7.64624H20.0309C18.6309 7.64624 17.4463 8.83085 17.4463 10.2308V33.9232"
      fill="#C2D8FC"/>
    <path
      d="M17.3389 42.0001V10.3385C17.3389 8.93853 18.5235 7.75391 19.9235 7.75391H40.4927C38.8773 7.75391 37.4773 9.04622 37.4773 10.7693V20.0308V30.5847V42.1078"
      fill="#DFEAFB"/>
    <path
      d="M17.3389 42.0001V10.3385C17.3389 8.93853 18.5235 7.75391 19.9235 7.75391H40.4927C38.8773 7.75391 37.4773 9.04622 37.4773 10.7693V20.0308V30.5847V42.1078"
      stroke="#002868"
      stroke-width="1.5"
      stroke-miterlimit="10"/>
    <path
      d="M27.7848 26.4924C31.3534 26.4924 34.2463 23.5995 34.2463 20.0309C34.2463 16.4623 31.3534 13.5693 27.7848 13.5693C24.2162 13.5693 21.3232 16.4623 21.3232 20.0309C21.3232 23.5995 24.2162 26.4924 27.7848 26.4924Z"
      fill="#00FDF6"
      stroke="#002868"
      stroke-width="1.5"
      stroke-miterlimit="10"
      stroke-linecap="round"/>
    <path
      d="M24.9849 19.8155L26.9233 21.7539L30.4772 18.2001"
      fill="#00FDF6"/>
    <path
      d="M24.9849 19.8155L26.9233 21.7539L30.4772 18.2001"
      stroke="#002868"
      stroke-width="1.5"
      stroke-miterlimit="10"
      stroke-linecap="round"/>
    <path
      d="M20.4619 30.5847H34.2465"
      stroke="#002868"
      stroke-width="1.5"
      stroke-miterlimit="10"
      stroke-linecap="round"/>
    <path
      d="M20.4619 33.0616H34.2465"
      stroke="#002868"
      stroke-width="1.5"
      stroke-miterlimit="10"
      stroke-linecap="round"/>
    <path
      d="M20.4619 35.4309H34.2465"
      stroke="#002868"
      stroke-width="1.5"
      stroke-miterlimit="10"
      stroke-linecap="round"/>
    <path
      d="M43.508 47.277H11.8464C9.6926 47.277 7.86182 45.5539 7.86182 43.2924V42.6462C7.86182 42.4308 8.07719 42.2155 8.29258 42.2155H46.8464C47.0618 42.2155 47.2772 42.4308 47.2772 42.6462V43.2924C47.4926 45.4462 45.7695 47.277 43.508 47.277Z"
      fill="#DFEAFB"
      stroke="#002868"
      stroke-width="1.5"
      stroke-miterlimit="10"/>
    <path
      d="M30.9079 44.6924H24.4464C23.6925 44.6924 23.0464 44.0462 23.0464 43.2924V42.1078H32.2002V43.2924C32.3079 44.1539 31.6618 44.6924 30.9079 44.6924Z"
      fill="#C2D8FC"
      stroke="#002868"
      stroke-width="1.5"
      stroke-miterlimit="10"/>
  </svg>