<svg width="22" height="22" viewBox="0 0 22 22" fill="none" xmlns="http://www.w3.org/2000/svg">
<path d="M8.25008 3.6665H4.58341C4.07715 3.6665 3.66675 4.07691 3.66675 4.58317V8.24984C3.66675 8.7561 4.07715 9.1665 4.58341 9.1665H8.25008C8.75634 9.1665 9.16675 8.7561 9.16675 8.24984V4.58317C9.16675 4.07691 8.75634 3.6665 8.25008 3.6665Z" stroke="#00D4FF" stroke-width="0.916667"/>
<path d="M17.4166 3.6665H13.7499C13.2437 3.6665 12.8333 4.07691 12.8333 4.58317V8.24984C12.8333 8.7561 13.2437 9.1665 13.7499 9.1665H17.4166C17.9228 9.1665 18.3333 8.7561 18.3333 8.24984V4.58317C18.3333 4.07691 17.9228 3.6665 17.4166 3.6665Z" stroke="#00D4FF" stroke-width="0.916667"/>
<path d="M8.25008 12.8335H4.58341C4.07715 12.8335 3.66675 13.2439 3.66675 13.7502V17.4168C3.66675 17.9231 4.07715 18.3335 4.58341 18.3335H8.25008C8.75634 18.3335 9.16675 17.9231 9.16675 17.4168V13.7502C9.16675 13.2439 8.75634 12.8335 8.25008 12.8335Z" stroke="#00D4FF" stroke-width="0.916667"/>
<path d="M12.8333 15.5835H18.3333M15.5833 12.8335V18.3335" stroke="#00D4FF" stroke-width="0.916667"/>
</svg>
