<svg
    width="44"
    height="44"
    viewBox="0 0 44 44"
    fill="none"
    xmlns="http://www.w3.org/2000/svg">
    <path
      fill-rule="evenodd"
      clip-rule="evenodd"
      d="M28.7335 1.85556C27.8802 1.77394 27.129 1.92005 26.476 2.23234C25.837 2.53796 25.383 2.96164 25.0915 3.25312C25.0302 3.31446 24.9733 3.38008 24.9212 3.44948C24.3636 4.193 23.9376 5.18664 23.9376 6.27698C23.9376 9.91989 22.7858 12.307 21.3181 13.9061C19.8164 15.5424 17.8632 16.4813 16.1089 16.9747C16.0809 16.9826 16.0531 16.9911 16.0256 17.0003C15.9378 17.0296 15.8505 17.0615 15.7641 17.096C15.6757 16.8362 15.5229 16.5496 15.2584 16.2888C14.6871 15.7255 13.9904 15.6723 13.6614 15.6723H3.66665C2.65412 15.6723 1.83331 16.4931 1.83331 17.5057V40.3332C1.83331 41.3457 2.65412 42.1666 3.66665 42.1666H13.6614C14.0943 42.1666 14.7966 42.0561 15.3374 41.4517C15.49 41.2813 15.6001 41.1034 15.6795 40.9308C15.7474 40.9705 15.8155 41.0082 15.8837 41.0436C16.0417 41.1256 16.2107 41.1842 16.3855 41.2175L19.9005 41.8874C20.0137 41.9089 20.1286 41.9198 20.2437 41.9198H32.4341C35.1741 41.9198 37.3522 39.7416 37.3522 37.0016C37.3522 36.464 37.2634 35.9775 37.117 35.5388C38.3559 34.6503 39.2031 33.2207 39.2031 31.5724C39.2031 31.0569 39.1338 30.5753 38.9998 30.1272C40.2571 29.23 41.054 27.7773 41.054 26.1431C41.054 25.6078 40.9789 25.0825 40.826 24.5827C41.9738 23.7824 42.769 22.5382 42.8974 21.1266L42.9008 21.0826C43.0995 18.1018 40.7014 15.7957 37.8634 15.7957H32.0861C32.1574 15.5565 32.2192 15.3214 32.2735 15.099C32.5057 14.1488 32.6817 13.0741 32.8165 12.0748C32.9523 11.0686 33.0513 10.1007 33.1233 9.3573L33.1667 8.90441C33.1836 8.72665 33.1985 8.56966 33.2122 8.43248C33.2277 8.27697 33.2379 8.18749 33.2429 8.14368C33.247 8.10791 33.2476 8.10253 33.2447 8.11723C33.2683 7.99885 33.2803 7.87841 33.2803 7.75768V7.68836C33.4204 5.18367 32.4805 3.54923 31.1374 2.65388C30.5265 2.2466 29.918 2.0514 29.4745 1.95551C29.2494 1.90683 29.0556 1.88131 28.9089 1.86782C28.8407 1.86155 28.7817 1.85779 28.7335 1.85556ZM27.7888 5.74452C27.6553 5.9542 27.6043 6.15215 27.6043 6.27698C27.6043 10.778 26.1475 14.0669 24.0195 16.3855C21.942 18.649 19.3371 19.8681 17.1533 20.4898C16.678 20.6608 16.4644 21.0268 16.4644 21.3308V36.3847C16.4644 36.4496 16.5169 36.7053 16.8006 37.082C16.9983 37.3445 17.2222 37.5497 17.3979 37.6778L20.4169 38.2531H32.4341C33.1491 38.2531 33.6856 37.7166 33.6856 37.0016C33.6856 36.8406 33.6496 36.6782 33.5437 36.4905H31.2002C30.1877 36.4905 29.3669 35.6697 29.3669 34.6572C29.3669 33.6446 30.1877 32.8238 31.2002 32.8238H34.3233C35.0256 32.7407 35.5365 32.1242 35.5365 31.5724C35.5365 31.3064 35.4924 31.1153 35.3721 30.9379H31.4902C30.4777 30.9379 29.6569 30.1171 29.6569 29.1046C29.6569 28.092 30.4777 27.2712 31.4902 27.2712H36.6483C37.1205 27.0569 37.3873 26.6108 37.3873 26.1431C37.3873 25.8912 37.3441 25.6832 37.2648 25.5086H31.4902C30.4777 25.5086 29.6569 24.6878 29.6569 23.6752C29.6569 22.6627 30.4777 21.8419 31.4902 21.8419H38.0269C38.7667 21.7589 39.1966 21.197 39.2437 20.8138C39.2773 20.1028 38.7171 19.4624 37.8634 19.4624H28.7323C27.8821 19.4624 27.1434 18.8778 26.948 18.0503C26.7691 17.2924 27.089 16.5129 27.7283 16.095C27.7632 16.061 27.8126 16.01 27.8787 15.9383C27.9416 15.8702 28.0028 15.8019 28.0704 15.7264L28.1317 15.658C28.1774 15.6072 28.2326 15.5459 28.2905 15.4836C28.3179 15.4343 28.367 15.3365 28.4298 15.1718C28.5224 14.9289 28.6177 14.6129 28.7117 14.2285C28.8997 13.459 29.0554 12.5285 29.1828 11.5845C29.3092 10.6472 29.403 9.73337 29.4737 9.0038L29.5154 8.56824L29.5159 8.56286C29.5336 8.37781 29.5496 8.20904 29.5636 8.06906C29.5769 7.93543 29.5934 7.76984 29.6137 7.61898C29.614 7.58594 29.6151 7.55291 29.6172 7.51992C29.7053 6.11015 29.2305 5.78935 29.1035 5.70473C28.9741 5.61844 28.8268 5.56686 28.6996 5.53936C28.6394 5.52634 28.5942 5.52101 28.5731 5.51908L28.5677 5.51861C28.5138 5.51739 28.46 5.51381 28.4065 5.50786C28.1814 5.48285 28.0948 5.5226 28.0581 5.54016C28.0009 5.56748 27.9236 5.61856 27.7888 5.74452ZM5.49998 38.4999V19.339H12.1454V38.4999H5.49998Z"
      fill="#002868" />
  </svg>