<svg
    width="36"
    height="36"
    viewBox="0 0 36 36"
    fill="none"
    xmlns="http://www.w3.org/2000/svg">
    <path
      fill-rule="evenodd"
      clip-rule="evenodd"
      d="M18.0135 4.56744C24.8064 4.58782 30.5263 9.65245 31.3688 16.393C32.2114 23.1335 27.9142 29.4503 21.3353 31.1421C16.1557 32.474 10.832 30.6126 7.57501 26.6808L7.57488 30.0078C7.57488 30.7771 6.99582 31.4111 6.24981 31.4977L6.07488 31.5078C5.30562 31.5078 4.67162 30.9288 4.58497 30.1828L4.57488 30.0078V22.5078C4.57488 21.7386 5.15394 21.1046 5.89994 21.0179L6.07488 21.0078H13.5749C14.4033 21.0078 15.0749 21.6794 15.0749 22.5078C15.0749 23.2771 14.4958 23.9111 13.7498 23.9977L13.5749 24.0078L9.31423 24.0093C11.7615 27.5795 16.2401 29.3547 20.5881 28.2366C25.7051 26.9207 29.0473 22.0077 28.392 16.7651C27.7367 11.5224 23.2879 7.58328 18.0045 7.56743C12.7211 7.55168 8.24882 11.4642 7.56215 16.7028C7.45449 17.5242 6.70133 18.1028 5.87993 17.9951C5.05853 17.8875 4.47993 17.1343 4.5876 16.3129C5.47046 9.57753 11.2205 4.54719 18.0135 4.56744Z"
      fill="#0033B7"/>
  </svg>